<?xml version="1.0" encoding="UTF-8" standalone="no"?>
<!-- Created with Inkscape (http://www.inkscape.org/) -->

<svg
   xmlns:dc="http://purl.org/dc/elements/1.1/"
   xmlns:cc="http://creativecommons.org/ns#"
   xmlns:rdf="http://www.w3.org/1999/02/22-rdf-syntax-ns#"
   xmlns:svg="http://www.w3.org/2000/svg"
   xmlns="http://www.w3.org/2000/svg"
   xmlns:sodipodi="http://sodipodi.sourceforge.net/DTD/sodipodi-0.dtd"
   xmlns:inkscape="http://www.inkscape.org/namespaces/inkscape"
   id="svg2985"
   version="1.1"
   inkscape:version="0.48.4 r9939"
   width="750.48676"
   height="776.1322"
   xml:space="preserve"
   sodipodi:docname="ReplicaSymmetry.svg"><metadata
     id="metadata2991"><rdf:RDF><cc:Work
         rdf:about=""><dc:format>image/svg+xml</dc:format><dc:type
           rdf:resource="http://purl.org/dc/dcmitype/StillImage" /><dc:title /></cc:Work></rdf:RDF></metadata><defs
     id="defs2989"><clipPath
       clipPathUnits="userSpaceOnUse"
       id="clipPath3001"><path
         d="m 0,0 305.60001,0 0,321.60001 L 0,321.60001 0,0 z"
         id="path3003"
         inkscape:connector-curvature="0" /></clipPath><clipPath
       clipPathUnits="userSpaceOnUse"
       id="clipPath3023"><path
         d="m 0,0 305.60001,0 0,321.60001 L 0,321.60001 0,0 z"
         id="path3025"
         inkscape:connector-curvature="0" /></clipPath><clipPath
       clipPathUnits="userSpaceOnUse"
       id="clipPath3049"><path
         d="m 0,0 305.60001,0 0,321.60001 L 0,321.60001 0,0 z"
         id="path3051"
         inkscape:connector-curvature="0" /></clipPath><clipPath
       clipPathUnits="userSpaceOnUse"
       id="clipPath3083"><path
         d="m 0,0 305.60001,0 0,321.60001 L 0,321.60001 0,0 z"
         id="path3085"
         inkscape:connector-curvature="0" /></clipPath></defs><sodipodi:namedview
     pagecolor="#ffffff"
     bordercolor="#666666"
     borderopacity="1"
     objecttolerance="10"
     gridtolerance="10"
     guidetolerance="10"
     inkscape:pageopacity="0"
     inkscape:pageshadow="2"
     inkscape:window-width="2560"
     inkscape:window-height="1538"
     id="namedview2987"
     showgrid="false"
     inkscape:zoom="1.2069954"
     inkscape:cx="283.83956"
     inkscape:cy="388.05755"
     inkscape:window-x="-8"
     inkscape:window-y="-8"
     inkscape:window-maximized="1"
     inkscape:current-layer="g3015"
     fit-margin-top="0"
     fit-margin-left="0"
     fit-margin-right="0"
     fit-margin-bottom="0"><sodipodi:guide
       position="-6.697801,-210.22192"
       orientation="0,765"
       id="guide3051" /><sodipodi:guide
       position="758.3022,-210.22192"
       orientation="-990,0"
       id="guide3053" /><sodipodi:guide
       position="758.3022,779.77808"
       orientation="0,-765"
       id="guide3055" /><sodipodi:guide
       position="-6.697801,779.77808"
       orientation="990,0"
       id="guide3057" /><sodipodi:guide
       position="-6.697801,-210.22192"
       orientation="0,765"
       id="guide3059" /><sodipodi:guide
       position="758.3022,-210.22192"
       orientation="-990,0"
       id="guide3061" /><sodipodi:guide
       position="758.3022,779.77808"
       orientation="0,-765"
       id="guide3063" /><sodipodi:guide
       position="-6.697801,779.77808"
       orientation="990,0"
       id="guide3065" /></sodipodi:namedview><g
     id="g2993"
     inkscape:groupmode="layer"
     inkscape:label="Landscape_web"
     transform="matrix(1.25,0,0,-1.25,160.5122,260.64789)"><g
       id="g2995"
       transform="matrix(0.88372379,0,0,0.88372379,-127.52605,-76.598613)"
       style="stroke-width:3.62104082;stroke-miterlimit:4;stroke-dasharray:none"><g
         id="g2997"
         style="stroke-width:3.62104082;stroke-miterlimit:4;stroke-dasharray:none"><g
           id="g2999"
           style="stroke-width:3.62104082;stroke-miterlimit:4;stroke-dasharray:none" /><g
           id="g3005"
           style="stroke-width:3.62104082;stroke-miterlimit:4;stroke-dasharray:none"><g
             clip-path="url(#clipPath3001)"
             id="g3007"
             style="stroke-width:3.62104082;stroke-miterlimit:4;stroke-dasharray:none"><g
               id="g3009"
               style="stroke-width:3.62104082;stroke-miterlimit:4;stroke-dasharray:none"><g
                 transform="matrix(1,0,0,-1,0,321.60001)"
                 id="g3011"
                 style="stroke-width:3.62104082;stroke-miterlimit:4;stroke-dasharray:none"><path
                   d="m 304.801,160.789 c 0,88.367 -68.055,160 -152,160 -83.949,0 -152,-71.633 -152,-160 0,-88.363 68.051,-160 152,-160 83.945,0 152,71.637 152,160 z"
                   style="fill:#808080;fill-opacity:1;fill-rule:nonzero;stroke:#000000;stroke-width:3.62104082;stroke-linecap:square;stroke-linejoin:miter;stroke-miterlimit:4;stroke-opacity:1;stroke-dasharray:none;stroke-dashoffset:0"
                   id="path3013"
                   inkscape:connector-curvature="0" /></g></g></g></g></g></g><g
       id="g3015"
       transform="matrix(3.3421216,0,0,3.3421216,201.00786,-76.598613)"><g
         id="g3033"
         transform="matrix(0.26442,0,0,-0.26442,0,85.037475)"
         style="stroke-width:3.62104082;stroke-miterlimit:4;stroke-dasharray:none"><path
           inkscape:connector-curvature="0"
           id="path3035"
           style="fill:none;stroke:#000000;stroke-width:3.62104082;stroke-linecap:square;stroke-linejoin:miter;stroke-miterlimit:4;stroke-opacity:1;stroke-dasharray:none;stroke-dashoffset:0"
           d="m 304.801,160.789 c 0,88.367 -68.055,160 -152,160 -83.949,0 -152,-71.633 -152,-160 0,-88.363 68.051,-160 152,-160 83.945,0 152,71.637 152,160 z" /></g><g
         id="g3037"
         transform="matrix(0.26442,0,0,-0.26442,0,85.037475)"><path
           inkscape:connector-curvature="0"
           id="path3039"
           style="fill:#808080;fill-opacity:1;fill-rule:nonzero;stroke:#808080;stroke-width:3.5999999;stroke-linecap:square;stroke-linejoin:miter;stroke-miterlimit:4;stroke-opacity:1;stroke-dasharray:3.6, 3.6;stroke-dashoffset:0"
           d="m 197.801,160.789 c 0,24.852 -20.149,45 -45,45 -24.856,0 -45,-20.148 -45,-45 0,-24.851 20.144,-45 45,-45 24.851,0 45,20.149 45,45 z" /></g><g
         transform="matrix(0.26442,0,0,-0.26442,-98.301,-15.171525)"
         id="g3059"
         style="stroke-width:3.62104082;stroke-miterlimit:4;stroke-dasharray:none"><path
           d="m 304.801,160.789 c 0,88.367 -68.055,160 -152,160 -83.949,0 -152,-71.633 -152,-160 0,-88.363 68.051,-160 152,-160 83.945,0 152,71.637 152,160 z"
           style="fill:none;stroke:#000000;stroke-width:3.62104082;stroke-linecap:square;stroke-linejoin:miter;stroke-miterlimit:4;stroke-opacity:1;stroke-dasharray:none;stroke-dashoffset:0"
           id="path3061"
           inkscape:connector-curvature="0" /></g><g
         transform="matrix(0.26442,0,0,-0.26442,-98.301,-15.171525)"
         id="g3063"><path
           d="m 168.801,68.789 c 0,11.047 -8.957,20 -20,20 -11.047,0 -20,-8.953 -20,-20 0,-11.047 8.953,-20 20,-20 11.043,0 20,8.953 20,20 z"
           style="fill:#808080;fill-opacity:1;fill-rule:nonzero;stroke:#808080;stroke-width:1.60000002;stroke-linecap:square;stroke-linejoin:miter;stroke-miterlimit:4;stroke-opacity:1;stroke-dasharray:1.6, 1.6;stroke-dashoffset:0"
           id="path3065"
           inkscape:connector-curvature="0" /></g><g
         transform="matrix(0.26442,0,0,-0.26442,-98.301,-15.171525)"
         id="g3067"><path
           d="m 248.801,216.789 c 0,11.047 -8.957,20 -20,20 -11.047,0 -20,-8.953 -20,-20 0,-11.047 8.953,-20 20,-20 11.043,0 20,8.953 20,20 z"
           style="fill:#808080;fill-opacity:1;fill-rule:nonzero;stroke:#808080;stroke-width:1.60000002;stroke-linecap:square;stroke-linejoin:miter;stroke-miterlimit:4;stroke-opacity:1;stroke-dasharray:1.6, 1.6;stroke-dashoffset:0"
           id="path3069"
           inkscape:connector-curvature="0" /></g><g
         transform="matrix(0.26442,0,0,-0.26442,-98.301,-15.171525)"
         id="g3071"><path
           d="m 96.801,216.789 c 0,11.047 -8.957,20 -20,20 -11.047,0 -20,-8.953 -20,-20 0,-11.047 8.953,-20 20,-20 11.043,0 20,8.953 20,20 z"
           style="fill:#808080;fill-opacity:1;fill-rule:nonzero;stroke:#808080;stroke-width:1.60000002;stroke-linecap:square;stroke-linejoin:miter;stroke-miterlimit:4;stroke-opacity:1;stroke-dasharray:1.6, 1.6;stroke-dashoffset:0"
           id="path3073"
           inkscape:connector-curvature="0" /></g><g
         id="g3093"
         transform="matrix(0.26442,0,0,-0.26442,0,-15.171525)"
         style="stroke-width:3.62104082;stroke-miterlimit:4;stroke-dasharray:none"><path
           inkscape:connector-curvature="0"
           id="path3095"
           style="fill:none;stroke:#000000;stroke-width:3.62104082;stroke-linecap:square;stroke-linejoin:miter;stroke-miterlimit:4;stroke-opacity:1;stroke-dasharray:none;stroke-dashoffset:0"
           d="m 304.801,160.789 c 0,88.367 -68.055,160 -152,160 -83.949,0 -152,-71.633 -152,-160 0,-88.363 68.051,-160 152,-160 83.945,0 152,71.637 152,160 z" /></g><g
         id="g3097"
         transform="matrix(0.26442,0,0,-0.26442,0,-15.171525)"><path
           inkscape:connector-curvature="0"
           id="path3099"
           style="fill:#808080;fill-opacity:1;fill-rule:nonzero;stroke:#808080;stroke-width:0.63999999;stroke-linecap:square;stroke-linejoin:miter;stroke-miterlimit:4;stroke-opacity:1;stroke-dasharray:0.64, 0.64;stroke-dashoffset:0"
           d="m 160.801,32.789 c 0,4.418 -3.582,8 -8,8 -4.418,0 -8,-3.582 -8,-8 0,-4.418 3.582,-8 8,-8 4.418,0 8,3.582 8,8 z" /></g><g
         id="g3101"
         transform="matrix(0.26442,0,0,-0.26442,0,-15.171525)"><path
           inkscape:connector-curvature="0"
           id="path3103"
           style="fill:#808080;fill-opacity:1;fill-rule:nonzero;stroke:#808080;stroke-width:0.63999999;stroke-linecap:square;stroke-linejoin:miter;stroke-miterlimit:4;stroke-opacity:1;stroke-dasharray:0.64, 0.64;stroke-dashoffset:0"
           d="m 176.801,56.789 c 0,4.418 -3.582,8 -8,8 -4.418,0 -8,-3.582 -8,-8 0,-4.418 3.582,-8 8,-8 4.418,0 8,3.582 8,8 z" /></g><g
         id="g3105"
         transform="matrix(0.26442,0,0,-0.26442,0,-15.171525)"><path
           inkscape:connector-curvature="0"
           id="path3107"
           style="fill:#808080;fill-opacity:1;fill-rule:nonzero;stroke:#808080;stroke-width:0.63999999;stroke-linecap:square;stroke-linejoin:miter;stroke-miterlimit:4;stroke-opacity:1;stroke-dasharray:0.64, 0.64;stroke-dashoffset:0"
           d="m 144.801,56.789 c 0,4.418 -3.582,8 -8,8 -4.418,0 -8,-3.582 -8,-8 0,-4.418 3.582,-8 8,-8 4.418,0 8,3.582 8,8 z" /></g><g
         id="g3109"
         transform="matrix(0.26442,0,0,-0.26442,0,-15.171525)"><path
           inkscape:connector-curvature="0"
           id="path3111"
           style="fill:#808080;fill-opacity:1;fill-rule:nonzero;stroke:#808080;stroke-width:0.63999999;stroke-linecap:square;stroke-linejoin:miter;stroke-miterlimit:4;stroke-opacity:1;stroke-dasharray:0.64, 0.64;stroke-dashoffset:0"
           d="m 240.801,200.789 c 0,4.418 -3.582,8 -8,8 -4.418,0 -8,-3.582 -8,-8 0,-4.418 3.582,-8 8,-8 4.418,0 8,3.582 8,8 z" /></g><g
         id="g3113"
         transform="matrix(0.26442,0,0,-0.26442,0,-15.171525)"><path
           inkscape:connector-curvature="0"
           id="path3115"
           style="fill:#808080;fill-opacity:1;fill-rule:nonzero;stroke:#808080;stroke-width:0.63999999;stroke-linecap:square;stroke-linejoin:miter;stroke-miterlimit:4;stroke-opacity:1;stroke-dasharray:0.64, 0.64;stroke-dashoffset:0"
           d="m 256.801,224.789 c 0,4.418 -3.582,8 -8,8 -4.418,0 -8,-3.582 -8,-8 0,-4.418 3.582,-8 8,-8 4.418,0 8,3.582 8,8 z" /></g><g
         id="g3117"
         transform="matrix(0.26442,0,0,-0.26442,0,-15.171525)"><path
           inkscape:connector-curvature="0"
           id="path3119"
           style="fill:#808080;fill-opacity:1;fill-rule:nonzero;stroke:#808080;stroke-width:0.63999999;stroke-linecap:square;stroke-linejoin:miter;stroke-miterlimit:4;stroke-opacity:1;stroke-dasharray:0.64, 0.64;stroke-dashoffset:0"
           d="m 224.801,224.789 c 0,4.418 -3.582,8 -8,8 -4.418,0 -8,-3.582 -8,-8 0,-4.418 3.582,-8 8,-8 4.418,0 8,3.582 8,8 z" /></g><g
         id="g3121"
         transform="matrix(0.26442,0,0,-0.26442,0,-15.171525)"><path
           inkscape:connector-curvature="0"
           id="path3123"
           style="fill:#808080;fill-opacity:1;fill-rule:nonzero;stroke:#808080;stroke-width:0.63999999;stroke-linecap:square;stroke-linejoin:miter;stroke-miterlimit:4;stroke-opacity:1;stroke-dasharray:0.64, 0.64;stroke-dashoffset:0"
           d="m 72.801,200.789 c 0,4.418 -3.582,8 -8,8 -4.418,0 -8,-3.582 -8,-8 0,-4.418 3.582,-8 8,-8 4.418,0 8,3.582 8,8 z" /></g><g
         id="g3125"
         transform="matrix(0.26442,0,0,-0.26442,0,-15.171525)"><path
           inkscape:connector-curvature="0"
           id="path3127"
           style="fill:#808080;fill-opacity:1;fill-rule:nonzero;stroke:#808080;stroke-width:0.63999999;stroke-linecap:square;stroke-linejoin:miter;stroke-miterlimit:4;stroke-opacity:1;stroke-dasharray:0.64, 0.64;stroke-dashoffset:0"
           d="m 88.801,224.789 c 0,4.418 -3.582,8 -8,8 -4.418,0 -8,-3.582 -8,-8 0,-4.418 3.582,-8 8,-8 4.418,0 8,3.582 8,8 z" /></g><g
         id="g3129"
         transform="matrix(0.26442,0,0,-0.26442,0,-15.171525)"><path
           inkscape:connector-curvature="0"
           id="path3131"
           style="fill:#808080;fill-opacity:1;fill-rule:nonzero;stroke:#808080;stroke-width:0.63999999;stroke-linecap:square;stroke-linejoin:miter;stroke-miterlimit:4;stroke-opacity:1;stroke-dasharray:0.64, 0.64;stroke-dashoffset:0"
           d="m 56.801,224.789 c 0,4.418 -3.582,8 -8,8 -4.418,0 -8,-3.582 -8,-8 0,-4.418 3.582,-8 8,-8 4.418,0 8,3.582 8,8 z" /></g></g></g></svg>