<?xml version="1.0" encoding="UTF-8" standalone="no"?>
<!-- Created with Inkscape (http://www.inkscape.org/) -->

<svg
   xmlns:dc="http://purl.org/dc/elements/1.1/"
   xmlns:cc="http://creativecommons.org/ns#"
   xmlns:rdf="http://www.w3.org/1999/02/22-rdf-syntax-ns#"
   xmlns:svg="http://www.w3.org/2000/svg"
   xmlns="http://www.w3.org/2000/svg"
   xmlns:sodipodi="http://sodipodi.sourceforge.net/DTD/sodipodi-0.dtd"
   xmlns:inkscape="http://www.inkscape.org/namespaces/inkscape"
   id="svg2985"
   version="1.1"
   inkscape:version="0.48.4 r9939"
   width="765"
   height="990"
   xml:space="preserve"
   sodipodi:docname="Landscape_web.pdf"><metadata
     id="metadata2991"><rdf:RDF><cc:Work
         rdf:about=""><dc:format>image/svg+xml</dc:format><dc:type
           rdf:resource="http://purl.org/dc/dcmitype/StillImage" /><dc:title></dc:title></cc:Work></rdf:RDF></metadata><defs
     id="defs2989"><clipPath
       clipPathUnits="userSpaceOnUse"
       id="clipPath3001"><path
         d="m 0,0 305.60001,0 0,321.60001 L 0,321.60001 0,0 z"
         id="path3003" /></clipPath><clipPath
       clipPathUnits="userSpaceOnUse"
       id="clipPath3023"><path
         d="m 0,0 305.60001,0 0,321.60001 L 0,321.60001 0,0 z"
         id="path3025" /></clipPath><clipPath
       clipPathUnits="userSpaceOnUse"
       id="clipPath3049"><path
         d="m 0,0 305.60001,0 0,321.60001 L 0,321.60001 0,0 z"
         id="path3051" /></clipPath><clipPath
       clipPathUnits="userSpaceOnUse"
       id="clipPath3083"><path
         d="m 0,0 305.60001,0 0,321.60001 L 0,321.60001 0,0 z"
         id="path3085" /></clipPath></defs><sodipodi:namedview
     pagecolor="#ffffff"
     bordercolor="#666666"
     borderopacity="1"
     objecttolerance="10"
     gridtolerance="10"
     guidetolerance="10"
     inkscape:pageopacity="0"
     inkscape:pageshadow="2"
     inkscape:window-width="640"
     inkscape:window-height="480"
     id="namedview2987"
     showgrid="false"
     inkscape:zoom="0.23838384"
     inkscape:cx="382.5"
     inkscape:cy="495"
     inkscape:window-x="0"
     inkscape:window-y="0"
     inkscape:window-maximized="0"
     inkscape:current-layer="g2993" /><g
     id="g2993"
     inkscape:groupmode="layer"
     inkscape:label="Landscape_web"
     transform="matrix(1.25,0,0,-1.25,167.21,264.29375)"><g
       id="g2995"
       transform="scale(0.26442,0.26442)"><g
         id="g2997"><g
           id="g2999" /><g
           id="g3005"><g
             clip-path="url(#clipPath3001)"
             id="g3007"><g
               id="g3009"><g
                 transform="matrix(1,0,0,-1,0,321.60001)"
                 id="g3011"><path
                   d="m 304.801,160.789 c 0,88.367 -68.055,160 -152,160 -83.949,0 -152,-71.633 -152,-160 0,-88.363 68.051,-160 152,-160 83.945,0 152,71.637 152,160 z"
                   style="fill:#808080;fill-opacity:1;fill-rule:nonzero;stroke:#000000;stroke-opacity:1;stroke-width:1.6;stroke-linecap:square;stroke-linejoin:miter;stroke-miterlimit:4;stroke-dasharray:1.6,1.6;stroke-dashoffset:0"
                   id="path3013" /></g></g></g></g></g></g><g
       id="g3015"
       transform="translate(98.301,0)"><g
         id="g3017"
         transform="scale(0.26442,0.26442)"><g
           id="g3019"><g
             id="g3021" /><g
             id="g3027"><g
               clip-path="url(#clipPath3023)"
               id="g3029"><g
                 id="g3031"><g
                   transform="matrix(1,0,0,-1,0,321.60001)"
                   id="g3033"><path
                     d="m 304.801,160.789 c 0,88.367 -68.055,160 -152,160 -83.949,0 -152,-71.633 -152,-160 0,-88.363 68.051,-160 152,-160 83.945,0 152,71.637 152,160 z"
                     style="fill:none;stroke:#000000;stroke-opacity:1;stroke-width:1.6;stroke-linecap:square;stroke-linejoin:miter;stroke-miterlimit:4;stroke-dasharray:1.6,1.6;stroke-dashoffset:0"
                     id="path3035" /></g><g
                   transform="matrix(1,0,0,-1,0,321.60001)"
                   id="g3037"><path
                     d="m 197.801,160.789 c 0,24.852 -20.149,45 -45,45 -24.856,0 -45,-20.148 -45,-45 0,-24.851 20.144,-45 45,-45 24.851,0 45,20.149 45,45 z"
                     style="fill:#808080;fill-opacity:1;fill-rule:nonzero;stroke:#808080;stroke-opacity:1;stroke-width:3.6;stroke-linecap:square;stroke-linejoin:miter;stroke-miterlimit:4;stroke-dasharray:3.6,3.6;stroke-dashoffset:0"
                     id="path3039" /></g></g></g></g></g></g><g
         id="g3041"
         transform="translate(-98.301,-100.209)"><g
           id="g3043"
           transform="scale(0.26442,0.26442)"><g
             id="g3045"><g
               id="g3047" /><g
               id="g3053"><g
                 clip-path="url(#clipPath3049)"
                 id="g3055"><g
                   id="g3057"><g
                     transform="matrix(1,0,0,-1,0,321.60001)"
                     id="g3059"><path
                       d="m 304.801,160.789 c 0,88.367 -68.055,160 -152,160 -83.949,0 -152,-71.633 -152,-160 0,-88.363 68.051,-160 152,-160 83.945,0 152,71.637 152,160 z"
                       style="fill:none;stroke:#000000;stroke-opacity:1;stroke-width:1.6;stroke-linecap:square;stroke-linejoin:miter;stroke-miterlimit:4;stroke-dasharray:1.6,1.6;stroke-dashoffset:0"
                       id="path3061" /></g><g
                     transform="matrix(1,0,0,-1,0,321.60001)"
                     id="g3063"><path
                       d="m 168.801,68.789 c 0,11.047 -8.957,20 -20,20 -11.047,0 -20,-8.953 -20,-20 0,-11.047 8.953,-20 20,-20 11.043,0 20,8.953 20,20 z"
                       style="fill:#808080;fill-opacity:1;fill-rule:nonzero;stroke:#808080;stroke-opacity:1;stroke-width:1.6;stroke-linecap:square;stroke-linejoin:miter;stroke-miterlimit:4;stroke-dasharray:1.6,1.6;stroke-dashoffset:0"
                       id="path3065" /></g><g
                     transform="matrix(1,0,0,-1,0,321.60001)"
                     id="g3067"><path
                       d="m 248.801,216.789 c 0,11.047 -8.957,20 -20,20 -11.047,0 -20,-8.953 -20,-20 0,-11.047 8.953,-20 20,-20 11.043,0 20,8.953 20,20 z"
                       style="fill:#808080;fill-opacity:1;fill-rule:nonzero;stroke:#808080;stroke-opacity:1;stroke-width:1.6;stroke-linecap:square;stroke-linejoin:miter;stroke-miterlimit:4;stroke-dasharray:1.6,1.6;stroke-dashoffset:0"
                       id="path3069" /></g><g
                     transform="matrix(1,0,0,-1,0,321.60001)"
                     id="g3071"><path
                       d="m 96.801,216.789 c 0,11.047 -8.957,20 -20,20 -11.047,0 -20,-8.953 -20,-20 0,-11.047 8.953,-20 20,-20 11.043,0 20,8.953 20,20 z"
                       style="fill:#808080;fill-opacity:1;fill-rule:nonzero;stroke:#808080;stroke-opacity:1;stroke-width:1.6;stroke-linecap:square;stroke-linejoin:miter;stroke-miterlimit:4;stroke-dasharray:1.6,1.6;stroke-dashoffset:0"
                       id="path3073" /></g></g></g></g></g></g><g
           id="g3075"
           transform="translate(98.301,0)"><g
             id="g3077"
             transform="scale(0.26442,0.26442)"><g
               id="g3079"><g
                 id="g3081" /><g
                 id="g3087"><g
                   clip-path="url(#clipPath3083)"
                   id="g3089"><g
                     id="g3091"><g
                       transform="matrix(1,0,0,-1,0,321.60001)"
                       id="g3093"><path
                         d="m 304.801,160.789 c 0,88.367 -68.055,160 -152,160 -83.949,0 -152,-71.633 -152,-160 0,-88.363 68.051,-160 152,-160 83.945,0 152,71.637 152,160 z"
                         style="fill:none;stroke:#000000;stroke-opacity:1;stroke-width:1.6;stroke-linecap:square;stroke-linejoin:miter;stroke-miterlimit:4;stroke-dasharray:1.6,1.6;stroke-dashoffset:0"
                         id="path3095" /></g><g
                       transform="matrix(1,0,0,-1,0,321.60001)"
                       id="g3097"><path
                         d="m 160.801,32.789 c 0,4.418 -3.582,8 -8,8 -4.418,0 -8,-3.582 -8,-8 0,-4.418 3.582,-8 8,-8 4.418,0 8,3.582 8,8 z"
                         style="fill:#808080;fill-opacity:1;fill-rule:nonzero;stroke:#808080;stroke-opacity:1;stroke-width:0.64;stroke-linecap:square;stroke-linejoin:miter;stroke-miterlimit:4;stroke-dasharray:0.64,0.64;stroke-dashoffset:0"
                         id="path3099" /></g><g
                       transform="matrix(1,0,0,-1,0,321.60001)"
                       id="g3101"><path
                         d="m 176.801,56.789 c 0,4.418 -3.582,8 -8,8 -4.418,0 -8,-3.582 -8,-8 0,-4.418 3.582,-8 8,-8 4.418,0 8,3.582 8,8 z"
                         style="fill:#808080;fill-opacity:1;fill-rule:nonzero;stroke:#808080;stroke-opacity:1;stroke-width:0.64;stroke-linecap:square;stroke-linejoin:miter;stroke-miterlimit:4;stroke-dasharray:0.64,0.64;stroke-dashoffset:0"
                         id="path3103" /></g><g
                       transform="matrix(1,0,0,-1,0,321.60001)"
                       id="g3105"><path
                         d="m 144.801,56.789 c 0,4.418 -3.582,8 -8,8 -4.418,0 -8,-3.582 -8,-8 0,-4.418 3.582,-8 8,-8 4.418,0 8,3.582 8,8 z"
                         style="fill:#808080;fill-opacity:1;fill-rule:nonzero;stroke:#808080;stroke-opacity:1;stroke-width:0.64;stroke-linecap:square;stroke-linejoin:miter;stroke-miterlimit:4;stroke-dasharray:0.64,0.64;stroke-dashoffset:0"
                         id="path3107" /></g><g
                       transform="matrix(1,0,0,-1,0,321.60001)"
                       id="g3109"><path
                         d="m 240.801,200.789 c 0,4.418 -3.582,8 -8,8 -4.418,0 -8,-3.582 -8,-8 0,-4.418 3.582,-8 8,-8 4.418,0 8,3.582 8,8 z"
                         style="fill:#808080;fill-opacity:1;fill-rule:nonzero;stroke:#808080;stroke-opacity:1;stroke-width:0.64;stroke-linecap:square;stroke-linejoin:miter;stroke-miterlimit:4;stroke-dasharray:0.64,0.64;stroke-dashoffset:0"
                         id="path3111" /></g><g
                       transform="matrix(1,0,0,-1,0,321.60001)"
                       id="g3113"><path
                         d="m 256.801,224.789 c 0,4.418 -3.582,8 -8,8 -4.418,0 -8,-3.582 -8,-8 0,-4.418 3.582,-8 8,-8 4.418,0 8,3.582 8,8 z"
                         style="fill:#808080;fill-opacity:1;fill-rule:nonzero;stroke:#808080;stroke-opacity:1;stroke-width:0.64;stroke-linecap:square;stroke-linejoin:miter;stroke-miterlimit:4;stroke-dasharray:0.64,0.64;stroke-dashoffset:0"
                         id="path3115" /></g><g
                       transform="matrix(1,0,0,-1,0,321.60001)"
                       id="g3117"><path
                         d="m 224.801,224.789 c 0,4.418 -3.582,8 -8,8 -4.418,0 -8,-3.582 -8,-8 0,-4.418 3.582,-8 8,-8 4.418,0 8,3.582 8,8 z"
                         style="fill:#808080;fill-opacity:1;fill-rule:nonzero;stroke:#808080;stroke-opacity:1;stroke-width:0.64;stroke-linecap:square;stroke-linejoin:miter;stroke-miterlimit:4;stroke-dasharray:0.64,0.64;stroke-dashoffset:0"
                         id="path3119" /></g><g
                       transform="matrix(1,0,0,-1,0,321.60001)"
                       id="g3121"><path
                         d="m 72.801,200.789 c 0,4.418 -3.582,8 -8,8 -4.418,0 -8,-3.582 -8,-8 0,-4.418 3.582,-8 8,-8 4.418,0 8,3.582 8,8 z"
                         style="fill:#808080;fill-opacity:1;fill-rule:nonzero;stroke:#808080;stroke-opacity:1;stroke-width:0.64;stroke-linecap:square;stroke-linejoin:miter;stroke-miterlimit:4;stroke-dasharray:0.64,0.64;stroke-dashoffset:0"
                         id="path3123" /></g><g
                       transform="matrix(1,0,0,-1,0,321.60001)"
                       id="g3125"><path
                         d="m 88.801,224.789 c 0,4.418 -3.582,8 -8,8 -4.418,0 -8,-3.582 -8,-8 0,-4.418 3.582,-8 8,-8 4.418,0 8,3.582 8,8 z"
                         style="fill:#808080;fill-opacity:1;fill-rule:nonzero;stroke:#808080;stroke-opacity:1;stroke-width:0.64;stroke-linecap:square;stroke-linejoin:miter;stroke-miterlimit:4;stroke-dasharray:0.64,0.64;stroke-dashoffset:0"
                         id="path3127" /></g><g
                       transform="matrix(1,0,0,-1,0,321.60001)"
                       id="g3129"><path
                         d="m 56.801,224.789 c 0,4.418 -3.582,8 -8,8 -4.418,0 -8,-3.582 -8,-8 0,-4.418 3.582,-8 8,-8 4.418,0 8,3.582 8,8 z"
                         style="fill:#808080;fill-opacity:1;fill-rule:nonzero;stroke:#808080;stroke-opacity:1;stroke-width:0.64;stroke-linecap:square;stroke-linejoin:miter;stroke-miterlimit:4;stroke-dasharray:0.64,0.64;stroke-dashoffset:0"
                         id="path3131" /></g></g></g></g></g></g></g></g></g></g></svg>